<svg xmlns="http://www.w3.org/2000/svg" width="87" height="87" viewBox="0 0 87 87">
  <g id="Group_1816" data-name="Group 1816" transform="translate(-273.5 -1102.5)">
    <circle id="Ellipse_1" data-name="Ellipse 1" cx="43.5" cy="43.5" r="43.5" transform="translate(273.5 1102.5)" fill="#faeffd"/>
    <g id="Vector_Smart_Object" data-name="Vector Smart Object" transform="translate(295.55 1126)">
      <g id="Group_41" data-name="Group 41">
        <g id="Group_40" data-name="Group 40">
          <path id="Path_26" data-name="Path 26" d="M36.212,0V2.755h3.17L33.2,8.5a12.178,12.178,0,0,0-19.165,2.549c-.176-.008-.353-.012-.531-.012A11.948,11.948,0,0,0,1.45,22.855,11.917,11.917,0,0,0,12.1,34.588V38.25H7.889V41H12.1v4h2.81V41H19.3V38.25H14.906V34.588a12.081,12.081,0,0,0,9.146-6.031c.176.008.353.012.531.012A11.948,11.948,0,0,0,36.633,16.756a11.568,11.568,0,0,0-1.71-6.06L41.64,4.453V7.874h2.81V0ZM13.5,31.914a9.055,9.055,0,0,1-.591-18.1,11.576,11.576,0,0,0-.378,2.941,11.866,11.866,0,0,0,8.531,11.3A9.291,9.291,0,0,1,13.5,31.914Zm8.826-6.373a9.111,9.111,0,0,1-6.984-8.785,8.866,8.866,0,0,1,.415-2.686,9.111,9.111,0,0,1,6.984,8.785A8.868,8.868,0,0,1,22.327,25.541Zm2.847.254a11.576,11.576,0,0,0,.378-2.94,11.867,11.867,0,0,0-8.531-11.3A9.291,9.291,0,0,1,24.583,7.7a9.161,9.161,0,0,1,9.24,9.059A9.148,9.148,0,0,1,25.174,25.8Z"/>
        </g>
      </g>
    </g>
  </g>
</svg>
