<svg xmlns="http://www.w3.org/2000/svg" width="87" height="87" viewBox="0 0 87 87">
  <g id="Group_1853" data-name="Group 1853" transform="translate(-273.5 -1101.5)">
    <circle id="Ellipse_1" data-name="Ellipse 1" cx="43.5" cy="43.5" r="43.5" transform="translate(273.5 1101.5)" fill="#ffefef"/>
    <path id="Shape_1" data-name="Shape 1" d="M326.723,1164.987H301.252a7.44,7.44,0,0,1,0-14.874h8.813a4.614,4.614,0,0,0,0-9.226H302.4a4.331,4.331,0,0,1-4.088,3.012,4.375,4.375,0,0,1-4.314-4.424,4.423,4.423,0,0,1,2.938-4.192v-10.87a1.394,1.394,0,0,1,1.376-1.412h8.813a1.4,1.4,0,0,1,1.377,1.412v6.025a1.4,1.4,0,0,1-1.377,1.412h-7.436v3.433a4.388,4.388,0,0,1,2.711,2.78h7.663a7.439,7.439,0,0,1,0,14.874h-8.813a4.614,4.614,0,0,0,0,9.226h25.471a4.427,4.427,0,1,1,0,2.824Zm2.527-1.412a1.561,1.561,0,1,0,1.561-1.6A1.583,1.583,0,0,0,329.25,1163.575Zm-32.5-24.1a1.561,1.561,0,1,0,1.56-1.6A1.582,1.582,0,0,0,296.754,1139.475Zm2.937-10.45h6.059v-3.2h-6.059Zm29.893,26.154-5.325-10.713a10.5,10.5,0,0,1-3.637-8,10.193,10.193,0,1,1,20.379,0,10.5,10.5,0,0,1-3.638,8l-5.325,10.713a1.361,1.361,0,0,1-2.453,0Zm-6.209-18.716a7.661,7.661,0,0,0,2.832,5.989,1.4,1.4,0,0,1,.374.467l4.23,8.51,4.23-8.51a1.411,1.411,0,0,1,.374-.467,7.661,7.661,0,0,0,2.832-5.989,7.438,7.438,0,1,0-14.872,0Zm3.121,0a4.316,4.316,0,1,1,4.315,4.424A4.376,4.376,0,0,1,326.5,1136.462Zm2.754,0a1.561,1.561,0,1,0,1.561-1.6A1.583,1.583,0,0,0,329.25,1136.462Z"/>
  </g>
</svg>
