<svg xmlns="http://www.w3.org/2000/svg" width="18" height="26" viewBox="0 0 18 26">
  <g id="Vector_Smart_Object" data-name="Vector Smart Object" transform="translate(-1098 -1577)">
    <g id="Vector_Smart_Object-2" data-name="Vector Smart Object" transform="translate(1094.082 1577)">
      <g id="Group_36" data-name="Group 36">
        <path id="Path_21" data-name="Path 21" d="M15.527,19.407a3.007,3.007,0,0,1-1.035-.183l-1.564-.571-1.563.574A3.016,3.016,0,0,1,7.7,17.889l-.01-.018.005,6.6A1.52,1.52,0,0,0,9.215,26a1.506,1.506,0,0,0,.863-.273L12.9,23.755l2.822,1.972a1.5,1.5,0,0,0,1.566.1,1.521,1.521,0,0,0,.813-1.351V17.962a3.034,3.034,0,0,1-2.575,1.445Z"/>
        <path id="Path_22" data-name="Path 22" d="M21.376,6.669l-1.7-1.431-.387-2.195A1.515,1.515,0,0,0,17.8,1.785h0l-2.215,0L13.885.356a1.505,1.505,0,0,0-1.948,0l-1.7,1.434-2.215,0A1.515,1.515,0,0,0,6.537,3.056l-.383,2.2-1.7,1.434a1.529,1.529,0,0,0-.336,1.93l1.109,1.929-.383,2.2a1.524,1.524,0,0,0,.975,1.7l2.082.76,1.109,1.929a1.507,1.507,0,0,0,1.831.669l2.08-.764,2.082.76a1.509,1.509,0,0,0,1.829-.672l1.106-1.931,2.081-.764a1.524,1.524,0,0,0,.972-1.7L20.61,10.53,21.716,8.6a1.529,1.529,0,0,0-.34-1.93Zm-8.457,6.862a4.4,4.4,0,1,1,4.368-4.4,4.387,4.387,0,0,1-4.368,4.4Z"/>
        <ellipse id="Ellipse_9" data-name="Ellipse 9" cx="2.854" cy="2.872" rx="2.854" ry="2.872" transform="translate(8.888 9.137) rotate(-45)"/>
      </g>
    </g>
    <path id="Color_Overlay" data-name="Color Overlay" d="M1102.594,1602.825a1.521,1.521,0,0,1-.813-1.351l-.005-6.6.011.018a3.033,3.033,0,0,0,2.621,1.522,2.994,2.994,0,0,0,1.04-.185l1.563-.573,1.563.571a3.015,3.015,0,0,0,3.61-1.262v6.513a1.521,1.521,0,0,1-.813,1.351,1.5,1.5,0,0,1-1.566-.1l-2.822-1.972-2.822,1.972a1.5,1.5,0,0,1-1.566.1Zm.5-8.7-1.109-1.929-2.082-.76a1.524,1.524,0,0,1-.976-1.7l.382-2.2-1.109-1.93a1.527,1.527,0,0,1,.337-1.93l1.695-1.435.383-2.2a1.516,1.516,0,0,1,1.491-1.261l2.215,0,1.695-1.435a1.505,1.505,0,0,1,1.948,0l1.7,1.431,2.215,0h0a1.515,1.515,0,0,1,1.492,1.258l.386,2.194,1.7,1.431a1.529,1.529,0,0,1,.339,1.93l-1.105,1.931.387,2.2a1.524,1.524,0,0,1-.973,1.7l-2.08.764-1.106,1.931a1.508,1.508,0,0,1-1.83.672l-2.082-.76-2.08.764a1.509,1.509,0,0,1-1.832-.669Zm-.465-7.989a4.368,4.368,0,1,0,4.369-4.4A4.387,4.387,0,0,0,1102.631,1586.136Zm2.369,2.032a2.862,2.862,0,1,1,2.036.845A2.862,2.862,0,0,1,1105,1588.168Z" fill="#fff"/>
  </g>
</svg>
