<svg xmlns="http://www.w3.org/2000/svg" width="11" height="15" viewBox="0 0 11 15">
  <g id="Vector_Smart_Object" data-name="Vector Smart Object" transform="translate(-1.87)">
    <g id="Group_62" data-name="Group 62">
      <g id="Group_61" data-name="Group 61">
        <path id="Path_39" data-name="Path 39" d="M12.013,0H10.744V4.371c0,.307-.305.459-.541.073L9.365,3.079,8.527,4.444c-.238.384-.541.234-.541-.073V0H3.731A1.883,1.883,0,0,0,1.87,1.9V13.106A1.882,1.882,0,0,0,3.731,15h8.284a.846.846,0,0,0,.6-.256.876.876,0,0,0,.251-.614V.872A.866.866,0,0,0,12.013,0Zm.159,12.748-8.083.01a.36.36,0,0,0,0,.718h8.083l0,.662a.153.153,0,0,1-.042.106.148.148,0,0,1-.1.043H3.731a1.173,1.173,0,0,1,0-2.346h8.294a.151.151,0,0,1,.148.15Z"/>
      </g>
    </g>
  </g>
</svg>
