<svg xmlns="http://www.w3.org/2000/svg" width="14.001" height="14" viewBox="0 0 14.001 14">
  <g id="edit" transform="translate(-1236.999 -753)">
    <g id="edit-2" data-name="edit" transform="translate(1237 749.468)">
      <g id="Group_14" data-name="Group 14">
        <path id="Path_20" data-name="Path 20" d="M.365,17.532a.364.364,0,0,1-.351-.465l1.458-5.114a.355.355,0,0,1,.093-.158l7.74-7.746a1.864,1.864,0,0,1,2.577,0l1.584,1.586a1.83,1.83,0,0,1,0,2.584l-7.74,7.745a.364.364,0,0,1-.157.093l-5.1,1.461A.368.368,0,0,1,.365,17.532Zm1.783-5.287L.895,16.635l4.383-1.254L12.951,7.7a1.1,1.1,0,0,0,0-1.55L11.367,4.566h0a1.118,1.118,0,0,0-1.547,0Zm3.321,3.461h0Z"/>
        <path id="Path_21" data-name="Path 21" d="M5.469,16.071a.365.365,0,0,1-.258-.623L12.951,7.7a1.1,1.1,0,0,0,0-1.55L11.367,4.566a1.118,1.118,0,0,0-1.547,0l-7.74,7.746a.365.365,0,1,1-.515-.516l7.74-7.746a1.864,1.864,0,0,1,2.577,0l1.584,1.586a1.831,1.831,0,0,1,0,2.583l-7.74,7.746A.366.366,0,0,1,5.469,16.071Z"/>
        <path id="Path_22" data-name="Path 22" d="M5.469,16.071a.366.366,0,0,1-.258-.107L1.565,12.312A.365.365,0,0,1,2.08,11.8l3.646,3.653a.365.365,0,0,1-.257.623Z"/>
      </g>
    </g>
    <path id="Color_Overlay" data-name="Color Overlay" d="M1237.106,766.893a.365.365,0,0,1-.093-.358l1.459-5.114a.349.349,0,0,1,.093-.157l7.74-7.746a1.865,1.865,0,0,1,2.578,0l1.584,1.586c.032.032.063.066.093.1l.013.015,0,0,.009.012.006.007.005.007.01.012,0,0a1.83,1.83,0,0,1-.14,2.426l-7.74,7.745-.013.012,0,0a.354.354,0,0,1-.122.073l0,0-.006,0-.02.005-5.094,1.459a.39.39,0,0,1-.1.013A.362.362,0,0,1,1237.106,766.893Zm.788-.79,3.878-1.109-2.77-2.776Zm8.926-12.069-7.483,7.489,3.13,3.135,7.483-7.488a1.1,1.1,0,0,0,0-1.55l-1.584-1.586a1.12,1.12,0,0,0-1.546,0Z" fill="#fff"/>
  </g>
</svg>
