<svg xmlns="http://www.w3.org/2000/svg" width="19" height="16" viewBox="0 0 19 16">
  <g id="Vector_Smart_Object" data-name="Vector Smart Object" transform="translate(-1411 -180)">
    <g id="Vector_Smart_Object-2" data-name="Vector Smart Object" transform="translate(1411 178.545)">
      <g id="Group_1815" data-name="Group 1815">
        <path id="Path_1902" data-name="Path 1902" d="M18.443,16.347h-6.1l5.9-5.867a2.581,2.581,0,0,0,0-3.663l-4.627-4.6a2.614,2.614,0,0,0-3.68,0L.762,11.336A2.581,2.581,0,0,0,.762,15l2.3,2.293a.558.558,0,0,0,.394.162H18.443a.554.554,0,1,0,0-1.108ZM8.755,4.948,10.22,6.406l-4.49,4.468L4.266,9.417Zm4.48,4.459-4.49,4.468L6.518,11.658l4.49-4.468Zm.787.783,1.465,1.458-1.5,1.495L11,16.117,9.533,14.659ZM10.718,3a1.5,1.5,0,0,1,2.106,0L17.45,7.6a1.479,1.479,0,0,1,0,2.1l-1.175,1.17-6.733-6.7ZM1.549,14.216a1.477,1.477,0,0,1,0-2.1L3.478,10.2l1.859,1.85h0l3.015,3h0l1.3,1.3H3.691Z"/>
      </g>
    </g>
    <path id="Color_Overlay" data-name="Color Overlay" d="M1414.461,196a.561.561,0,0,1-.394-.162l-2.3-2.293a2.581,2.581,0,0,1,0-3.663l9.168-9.124a2.614,2.614,0,0,1,3.68,0l4.627,4.6a2.581,2.581,0,0,1,0,3.663l-5.9,5.867h6.1a.554.554,0,1,1,0,1.108Zm-1.911-5.334a1.475,1.475,0,0,0,0,2.1l2.141,2.131h5.963l-1.3-1.3h0l-3.015-3-1.859-1.85Zm7.983,2.539,1.465,1.458,2.988-2.974,1.5-1.495-1.465-1.458Zm-3.015-3,2.228,2.218,4.489-4.468-2.228-2.218Zm-2.252-2.241,1.464,1.458,4.49-4.469-1.465-1.458Zm6.451-6.422-1.174,1.17,6.732,6.7,1.175-1.17a1.479,1.479,0,0,0,0-2.1l-4.627-4.6a1.5,1.5,0,0,0-2.106,0Z" fill="#bcbcbc"/>
  </g>
</svg>
