<svg xmlns="http://www.w3.org/2000/svg" width="13" height="13" viewBox="0 0 13 13">
  <g id="Vector_Smart_Object" data-name="Vector Smart Object" transform="translate(0 0)">
    <g id="Group_95" data-name="Group 95">
      <g id="Group_94" data-name="Group 94">
        <path id="Path_56" data-name="Path 56" d="M12.8,6.116l-.041-.024-.923-.5L6.717,8.3a.464.464,0,0,1-.435,0L1.167,5.595l-.923.5a.46.46,0,0,0-.166.662l6.422,3.4,6.422-3.4A.46.46,0,0,0,12.8,6.116Z"/>
      </g>
    </g>
    <g id="Group_97" data-name="Group 97">
      <g id="Group_96" data-name="Group 96">
        <path id="Path_57" data-name="Path 57" d="M12.944,9.066a.464.464,0,0,0-.188-.188l-.923-.5L6.717,11.089a.464.464,0,0,1-.435,0L1.167,8.381l-.923.5a.464.464,0,0,0,0,.817l6.036,3.25a.464.464,0,0,0,.44,0l6.036-3.25A.464.464,0,0,0,12.944,9.066Z"/>
      </g>
    </g>
    <g id="Group_99" data-name="Group 99">
      <g id="Group_98" data-name="Group 98">
        <path id="Path_58" data-name="Path 58" d="M12.8,3.33l-.041-.024L6.72.056a.464.464,0,0,0-.44,0L.244,3.306a.46.46,0,0,0-.166.662L6.5,7.368l6.422-3.4A.46.46,0,0,0,12.8,3.33Z"/>
      </g>
    </g>
  </g>
</svg>
