<svg xmlns="http://www.w3.org/2000/svg" width="12" height="10" viewBox="0 0 12 10">
  <g id="Vector_Smart_Object" data-name="Vector Smart Object" transform="matrix(-1, 0, 0, -1, 12, -1.01)">
    <g id="Group_7" data-name="Group 7">
      <g id="Group_6" data-name="Group 6">
        <path id="Path_16" data-name="Path 16" d="M11.808-5.543,7.475-1.2a.651.651,0,0,1-.464.192A.652.652,0,0,1,6.546-1.2L6.152-1.6a.654.654,0,0,1-.192-.465.666.666,0,0,1,.192-.471L8.68-5.07H.648A.641.641,0,0,1,0-5.717v-.557A.666.666,0,0,1,.648-6.95H8.709L6.152-9.5a.644.644,0,0,1-.192-.461.649.649,0,0,1,.192-.463l.393-.393a.651.651,0,0,1,.464-.191.652.652,0,0,1,.464.192l4.334,4.341A.654.654,0,0,1,12-6.01.654.654,0,0,1,11.808-5.543Z"/>
      </g>
    </g>
  </g>
</svg>
