<svg xmlns="http://www.w3.org/2000/svg" width="16" height="19" viewBox="0 0 16 19">
  <path id="Color_Overlay" data-name="Color Overlay" d="M1645.947,669a2.923,2.923,0,0,1-2.948-2.891V658.9a2.923,2.923,0,0,1,2.948-2.892h.14v-1.19a4.913,4.913,0,0,1,9.824,0v1.19h.14A2.923,2.923,0,0,1,1659,658.9v7.209a2.923,2.923,0,0,1-2.948,2.891Zm-1.543-10.1v7.209a1.531,1.531,0,0,0,1.543,1.514h10.105a1.531,1.531,0,0,0,1.544-1.514V658.9a1.532,1.532,0,0,0-1.544-1.515h-10.105A1.531,1.531,0,0,0,1644.4,658.9Zm3.088-4.081v1.19h7.017v-1.19a3.509,3.509,0,0,0-7.017,0Zm2.931,9.414a.708.708,0,0,1-.5-.2l-.958-.94a.679.679,0,0,1,0-.973.711.711,0,0,1,.993,0l.462.453,1.625-1.594a.713.713,0,0,1,.993,0,.68.68,0,0,1,0,.974l-2.12,2.08a.706.706,0,0,1-.5.2Z" transform="translate(-1643 -650)" fill="#999"/>
</svg>
