<svg xmlns="http://www.w3.org/2000/svg" width="15" height="15" viewBox="0 0 15 15">
  <g id="Vector_Smart_Object3" data-name="Vector Smart Object3" transform="translate(0 -0.571)">
    <g id="Group_39" data-name="Group 39">
      <g id="Group_38" data-name="Group 38">
        <path id="Path_25" data-name="Path 25" d="M13.4.571H1.6A1.605,1.605,0,0,0,0,2.178v8.571a1.6,1.6,0,0,0,1.6,1.607H3.2v2.679a.533.533,0,0,0,.91.379L7,12.514a.531.531,0,0,1,.377-.157H13.4A1.605,1.605,0,0,0,15,10.749V2.178A1.605,1.605,0,0,0,13.4.571ZM2.666,2.874H10.2a.536.536,0,0,1,0,1.071H2.666a.536.536,0,0,1,0-1.071Zm5.4,6.41h-5.4a.536.536,0,0,1,0-1.071h5.4a.536.536,0,0,1,0,1.071Zm4.265-2.669H2.666a.536.536,0,0,1,0-1.071h9.668a.536.536,0,0,1,0,1.071Z"/>
      </g>
    </g>
  </g>
</svg>
