<svg xmlns="http://www.w3.org/2000/svg" width="13" height="16" viewBox="0 0 13 16">
  <path id="Color_Overlay" data-name="Color Overlay" d="M388.931,886a1.929,1.929,0,0,1-1.359-.556,1.829,1.829,0,0,1-.572-1.322V871.859a1.77,1.77,0,0,1,.552-1.3,1.933,1.933,0,0,1,1.359-.555h6.934c.019,0,.039.019.059.019.02.02.02.02.04.02a.075.075,0,0,1,.059.019c.02,0,.02.019.039.019.02.019.059.039.079.058l3.742,3.641c.02,0,.02.02.04.039,0,.019.02.019.02.038s.02.039.02.058.02.02.02.039.02.038.02.058c.019.019.019.019,0,.038a.147.147,0,0,1,.019.1v9.983a1.907,1.907,0,0,1-.531,1.322,1.931,1.931,0,0,1-1.36.556Zm-.67-14.773a.856.856,0,0,0-.276.632v12.263a.93.93,0,0,0,.926.9h9.159a.954.954,0,0,0,.65-.268.858.858,0,0,0,.275-.633v-9.5h-1.832a1.932,1.932,0,0,1-1.359-.555,1.832,1.832,0,0,1-.572-1.322v-1.782h-6.323A.948.948,0,0,0,388.261,871.227Zm7.977,1.514a.93.93,0,0,0,.926.9h1.122l-2.048-1.974Zm-5.264,10.189a.5.5,0,1,1,0-1h5.053a.528.528,0,0,1,.512.5.5.5,0,0,1-.512.5Zm0-2.869a.5.5,0,1,1,0-1h5.053a.528.528,0,0,1,.512.5.5.5,0,0,1-.512.5Zm0-2.87a.49.49,0,0,1-.512-.5.5.5,0,0,1,.512-.5h5.053a.49.49,0,0,1,.512.5.5.5,0,0,1-.512.5Z" transform="translate(-387 -870)" fill="#888"/>
</svg>
