<svg xmlns="http://www.w3.org/2000/svg" width="14.003" height="15.984" viewBox="0 0 14.003 15.984">
  <path id="Forma_1" data-name="Forma 1" d="M1200.051,333.992a1.036,1.036,0,0,1-.743-.291.94.94,0,0,1-.307-.707V319.007a.941.941,0,0,1,.307-.708,1.036,1.036,0,0,1,.743-.291H1206v5.661a.938.938,0,0,0,.306.707,1.041,1.041,0,0,0,.744.292H1213v8.326a.94.94,0,0,1-.306.707,1.038,1.038,0,0,1-.743.291Zm1.849-3.9a.314.314,0,0,0-.1.239v.666a.316.316,0,0,0,.1.239.35.35,0,0,0,.251.094h7.7a.351.351,0,0,0,.251-.094.316.316,0,0,0,.1-.239v-.666a.317.317,0,0,0-.1-.239.351.351,0,0,0-.251-.094h-7.7A.35.35,0,0,0,1201.9,330.089Zm0-2.664a.314.314,0,0,0-.1.239v.666a.316.316,0,0,0,.1.239.346.346,0,0,0,.251.094h7.7a.348.348,0,0,0,.251-.094.316.316,0,0,0,.1-.239v-.666a.317.317,0,0,0-.1-.239.351.351,0,0,0-.251-.094h-7.7A.35.35,0,0,0,1201.9,327.425Zm5.5-4.09v-5.3a2.71,2.71,0,0,1,1.444.677l3.414,3.247a2.486,2.486,0,0,1,.711,1.373Z" transform="translate(-1199.001 -318.008)"/>
</svg>
