<svg xmlns="http://www.w3.org/2000/svg" width="23.314" height="23.313" viewBox="0 0 23.314 23.313">
  <path id="Forma_1_copy_2" data-name="Forma 1 copy 2" d="M1183.593,883.672a11.655,11.655,0,1,0-4.266,15.921A11.654,11.654,0,0,0,1183.593,883.672Zm-5.432,13.9a9.324,9.324,0,1,1,3.413-12.736A9.324,9.324,0,0,1,1178.162,897.575Zm-.466-8.548-6.1-3.56c-.556-.324-1-.065-1,.579l.031,7.065c0,.643.457.9,1.015.582l6.057-3.5A.619.619,0,0,0,1177.7,889.026Z" transform="translate(-1161.843 -877.843)" fill="#fff"/>
</svg>
