<svg xmlns="http://www.w3.org/2000/svg" width="14" height="15.001" viewBox="0 0 14 15.001">
  <g id="Vector_Smart_Object" data-name="Vector Smart Object" transform="translate(-764 -870)">
    <g id="Vector_Smart_Object-2" data-name="Vector Smart Object" transform="translate(763.488 870)">
      <g id="Group_87" data-name="Group 87">
        <g id="Group_86" data-name="Group 86">
          <path id="Path_52" data-name="Path 52" d="M7.512,8.449c-4.514,0-7,2.132-7,6A.548.548,0,0,0,1.06,15h12.9a.548.548,0,0,0,.548-.547C14.512,10.581,12.026,8.449,7.512,8.449ZM1.628,13.905c.216-2.895,2.192-4.361,5.883-4.361S13.18,11.01,13.4,13.905Z"/>
        </g>
      </g>
      <g id="Group_89" data-name="Group 89">
        <g id="Group_88" data-name="Group 88">
          <path id="Path_53" data-name="Path 53" d="M7.512,0A3.591,3.591,0,0,0,3.875,3.7,3.8,3.8,0,0,0,7.512,7.646,3.8,3.8,0,0,0,11.149,3.7,3.591,3.591,0,0,0,7.512,0Zm0,6.551A2.71,2.71,0,0,1,4.971,3.7a2.491,2.491,0,0,1,2.54-2.61,2.519,2.519,0,0,1,2.54,2.61A2.71,2.71,0,0,1,7.512,6.551Z"/>
        </g>
      </g>
    </g>
    <path id="Color_Overlay" data-name="Color Overlay" d="M764.548,885a.548.548,0,0,1-.548-.548c0-3.871,2.486-6,7-6s7,2.132,7,6a.548.548,0,0,1-.548.548Zm.568-1.1h11.768c-.216-2.894-2.192-4.361-5.884-4.361S765.332,881.011,765.116,883.905Zm2.246-10.2a3.638,3.638,0,1,1,7.275,0,3.649,3.649,0,1,1-7.275,0Zm1.1,0a2.557,2.557,0,1,0,5.081,0A2.519,2.519,0,0,0,771,871.1,2.491,2.491,0,0,0,768.46,873.7Z" fill="#888"/>
  </g>
</svg>
