<svg xmlns="http://www.w3.org/2000/svg" width="87" height="87" viewBox="0 0 87 87">
  <g id="Group_70" data-name="Group 70" transform="translate(-686.5 -434.5)">
    <circle id="Ellipse_1" data-name="Ellipse 1" cx="43.5" cy="43.5" r="43.5" transform="translate(686.5 434.5)" fill="#faeffd"/>
    <g id="Vector_Smart_Object" data-name="Vector Smart Object" transform="translate(705.471 454)">
      <g id="Group_25" data-name="Group 25">
        <g id="Group_24" data-name="Group 24">
          <path id="Path_15" data-name="Path 15" d="M9.164.28A.958.958,0,0,0,7.529.957.958.958,0,1,0,9.164.28Z"/>
        </g>
      </g>
      <g id="Group_27" data-name="Group 27">
        <g id="Group_26" data-name="Group 26">
          <path id="Path_16" data-name="Path 16" d="M40.318,23.966a.947.947,0,0,0-.109-.267,16.858,16.858,0,0,0-1.458-2.748l-.527-.8a.961.961,0,0,0-.09-.115,2.708,2.708,0,0,0,.247-1.131,4.074,4.074,0,0,0-4.072-4.067H32.054a4.56,4.56,0,0,0,.865-2.676,4.826,4.826,0,0,0-1.6-3.587L22.062.266A.958.958,0,1,0,20.782,1.69l9.256,8.3A2.91,2.91,0,0,1,31,12.158a2.681,2.681,0,0,1-2.679,2.676h-.1a.955.955,0,0,0-.16.013l-9.55,1.618a.053.053,0,0,1-.062-.053V6.125a.958.958,0,0,0-1.916,0V16.413a1.969,1.969,0,0,0,2.3,1.94l9.471-1.6h6A2.157,2.157,0,0,1,36.465,18.9a.815.815,0,0,1-.814.813H28.416a.959.959,0,0,0-.364.072L17.766,24.011a6.028,6.028,0,0,1-8.321-5.569V3.924a.958.958,0,0,0-1.916,0V18.441A7.934,7.934,0,0,0,11.6,25.369v3.666a7.071,7.071,0,0,1-.363,2.238,27.744,27.744,0,0,0-.422,16.2l.228.826a.958.958,0,0,0,1.848-.509l-.228-.826a25.837,25.837,0,0,1,.393-15.086,8.98,8.98,0,0,0,.461-2.842V26.13a7.986,7.986,0,0,0,4.977-.349l10.111-4.152H35.65a2.718,2.718,0,0,0,1.1-.233l.4.6a15.235,15.235,0,0,1,1.273,2.372,2.492,2.492,0,0,1-2.483,2.3,4.412,4.412,0,0,0-4.3,3.445c-.06,0-.12,0-.181.006a3.03,3.03,0,0,0-2.2,1.424.857.857,0,0,1-.663.269,4.421,4.421,0,1,0-7.158-.794.955.955,0,0,0-.028.11,8.632,8.632,0,0,0,.079,3.04,6.543,6.543,0,0,0,3.783,4.8,9.252,9.252,0,0,0,3.838.947,4.82,4.82,0,0,0,4.393-2.42,1.011,1.011,0,0,1,.142.236,1.445,1.445,0,0,0,1.681.926,2.521,2.521,0,0,0,2.218-2.513,4.492,4.492,0,0,0-1.933-3.543,3.56,3.56,0,0,0-1.779-.691,2.341,2.341,0,0,0-.385-.9,2.491,2.491,0,0,1,2.489-2.429,4.4,4.4,0,0,0,3.342-1.537A14.972,14.972,0,0,1,35.487,40.59a6.879,6.879,0,0,0-1.9,4.753v2.7a.958.958,0,0,0,1.916,0v-2.7a4.974,4.974,0,0,1,1.371-3.436,16.926,16.926,0,0,0,3.441-17.941ZM25.3,26.377a2.5,2.5,0,1,1-2.505,2.5A2.507,2.507,0,0,1,25.3,26.377Zm8.262,7.448a1.633,1.633,0,0,1,.931.339A2.675,2.675,0,0,1,35.632,36.1a.678.678,0,0,1-.207.519.618.618,0,0,1-.152.1,2.36,2.36,0,0,0-1.681-1.281,1.727,1.727,0,0,0-1.735,1.094c-.68,1.314-2.556,2.191-5.78.71a4.911,4.911,0,0,1-2.841-4.456,4.4,4.4,0,0,0,2.8.452c.466.192,3.42,1.309,4.775-.56a1.387,1.387,0,0,1,.8-.639.407.407,0,0,1,.3.125.862.862,0,0,1,0,.676c-.3.815-1.475,1.558-3.235,2.039a.957.957,0,1,0,.506,1.846C31.895,35.978,33.073,34.824,33.566,33.824Z"/>
        </g>
      </g>
    </g>
  </g>
</svg>
