<svg xmlns="http://www.w3.org/2000/svg" width="22.007" height="25" viewBox="0 0 22.007 25">
  <path id="Forma_1" data-name="Forma 1" d="M362.675,824.705a.987.987,0,0,1-.231-.966l1.147-3.844a.982.982,0,0,1,.24-.408l5.266-5.35a2.845,2.845,0,0,1,4.069,0,2.971,2.971,0,0,1,0,4.144l-5.255,5.34a.956.956,0,0,1-.421.25l-3.872,1.092a.96.96,0,0,1-.256.035A.95.95,0,0,1,362.675,824.705Zm2.681-4.008-.57,1.911,1.948-.549,3.533-3.59-1.357-1.381Zm5.1-5.177-.185.188,1.356,1.381.186-.189a.989.989,0,0,0,0-1.38.947.947,0,0,0-1.356,0ZM355.837,825A3.876,3.876,0,0,1,352,821.093V803.906A3.877,3.877,0,0,1,355.837,800h11.793a3.877,3.877,0,0,1,3.837,3.907v6.006a.959.959,0,1,1-1.918,0v-6.006a1.938,1.938,0,0,0-1.919-1.953H355.837a1.938,1.938,0,0,0-1.918,1.953v17.187a1.938,1.938,0,0,0,1.918,1.953h3.208a.977.977,0,0,1,0,1.953Zm.963-9.38a.969.969,0,0,1-.969-.969v-.011a.969.969,0,0,1,.969-.969h5.98a.97.97,0,0,1,.97.969v.011a.97.97,0,0,1-.97.969Zm-.009-3.9a.977.977,0,0,1,0-1.953h9.879a.977.977,0,0,1,0,1.953Zm0-3.906a.977.977,0,0,1,0-1.953h9.879a.977.977,0,0,1,0,1.953Z" transform="translate(-352 -799.999)" fill="#fff"/>
</svg>
